<svg width="15" height="12" viewBox="0 0 15 12" fill="none" xmlns="http://www.w3.org/2000/svg">
<path d="M9.98271 5.88195L14.6295 1.84715C14.8457 1.65683 14.8654 1.33328 14.6688 1.12012C14.4723 0.91077 14.1381 0.891738 13.9179 1.08206L7.50992 6.65085L6.25977 5.56982C6.25584 5.56602 6.2519 5.56221 6.2519 5.5584C6.22439 5.53176 6.19687 5.50892 6.16542 5.48608L1.07831 1.07825C0.858157 0.887931 0.523996 0.906963 0.327431 1.12012C0.130866 1.33328 0.150522 1.65683 0.370675 1.84715L5.07251 5.91621L0.390332 10.1604C0.178041 10.3545 0.166248 10.678 0.366744 10.8874C0.472889 10.994 0.614416 11.0511 0.755943 11.0511C0.885676 11.0511 1.01541 11.0054 1.11762 10.914L5.87057 6.60898L7.16004 7.72426C7.26225 7.8118 7.38805 7.85367 7.51385 7.85367C7.63965 7.85367 7.76939 7.808 7.86767 7.72045L9.19252 6.57091L13.9179 10.9178C14.0202 11.013 14.1538 11.0587 14.2836 11.0587C14.4251 11.0587 14.5627 11.0054 14.6688 10.8988C14.8693 10.6933 14.8615 10.3659 14.6492 10.1718L9.98271 5.88195Z" fill="#00B2FF"/>
</svg>
